<?xml version="1.0" encoding="UTF-8"?>
<svg width="256px" height="256px" viewBox="0 0 256 256" version="1.1" xmlns="http://www.w3.org/2000/svg" xmlns:xlink="http://www.w3.org/1999/xlink">
    <!-- Generator: Sketch 49.2 (51160) - http://www.bohemiancoding.com/sketch -->
    <title>Blogger Importer</title>
    <desc>Created with Sketch.</desc>
    <defs>
        <linearGradient x1="50%" y1="-2.48949813e-15%" x2="50%" y2="100%" id="linearGradient-1">
            <stop stop-color="#99D9ED" offset="0%"></stop>
            <stop stop-color="#33B3DB" offset="100%"></stop>
        </linearGradient>
        <path d="M58,58.5714286 C59.7142857,56.8214286 60.2142857,56.75 71,56.75 C80.7142857,56.75 81.0357143,56.7857143 82.4642857,57.5 C84.5357143,58.5357143 85.4285714,60 85.4285714,62.3571429 C85.4285714,64.4642857 84.5714286,65.9285714 82.7142857,67.1428571 C81.7142857,67.7857143 81.1071429,67.8214286 71.6071429,67.8928571 C65.75,67.9285714 61.0714286,67.8214286 60.3571429,67.6071429 C56.6785714,66.5714286 55.3214286,61.2857143 58,58.5714286 Z M79.9285714,92.3214286 C60.6785714,92.3214286 60,92.3928571 58.4285714,93.7857143 C57.1785714,94.8928571 56.3928571,97.1428571 56.6071429,98.75 C56.8571429,100.428571 58.3214286,102.357143 59.8928571,103.035714 C60.6785714,103.392857 64.9285714,103.642857 80,103.464286 L97.1071429,103.25 L100.392857,102.714286 C103.607143,100.892857 104.142857,96.5 101.5,94 C99.6071429,92.3214286 99.7142857,92.3214286 79.9285714,92.3214286 Z M159.714286,138.785714 C158.464286,148.928571 151.5,156.785714 141.464286,159.321429 C138.892857,159.964286 138,160 79.7142857,159.964286 C23.3571429,159.964286 20.4642857,159.928571 18.2857143,159.321429 C15.2857143,158.535714 12.7142857,157.357143 10.3214286,155.75 C8.32142857,154.392857 5.35714286,151.535714 4.25,149.892857 C2.89285714,147.892857 1.32142857,144.428571 0.678571429,142.035714 C0.0357142857,139.642857 0,138.678571 0,80.1071429 C0,21.8571429 0,20.6071429 0.642857143,18.0714286 C2.89285714,9.25 9.89285714,2.5 18.9285714,0.5 C21.5357143,-0.0714285714 137.535714,-0.178571429 140.357143,0.392857143 C147.928571,1.92857143 153.892857,6.5 157.357143,13.3928571 C160.107143,18.8571429 159.857143,12.8571429 159.964286,77.8928571 C160.035714,119.25 159.964286,136.642857 159.714286,138.785714 Z M129.214286,72.6428571 C128.821429,70.8571429 127.714286,69.2142857 126.464286,68.5357143 C126.071429,68.3214286 123.607143,68.0714286 120.928571,67.9285714 C116.5,67.7142857 116,67.6428571 114.571429,66.8214286 C112.357143,65.5357143 111.75,64.1071429 111.714286,60.2857143 C111.714286,53 108.678571,46.2142857 102.678571,40.1071429 C98.3928571,35.75 93.6428571,32.7857143 88.1785714,31.1428571 C86.8928571,30.75 83.9642857,30.6071429 74.1785714,30.5 C58.8571429,30.3214286 55.4285714,30.6428571 50.2142857,32.7142857 C40.5714286,36.5357143 33.6785714,44.6428571 31.1428571,55 C30.6785714,56.9285714 30.5714286,60.0714286 30.4642857,77.9642857 C30.3214286,100.392857 30.4642857,103.714286 31.8928571,108.142857 C35.3571429,119.107143 45.1428571,127.214286 54.9642857,129 C58.25,129.607143 98.6071429,129.75 102.714286,129.178571 C109.892857,128.214286 115.535714,125.321429 120.821429,119.928571 C124.642857,116.035714 127.035714,111.785714 128.607143,106.178571 C129.75,102.285714 129.642857,74.6071429 129.214286,72.6428571 Z" id="path-2"></path>
        <linearGradient x1="50%" y1="0%" x2="50%" y2="100%" id="linearGradient-3">
            <stop stop-color="#FBFBFC" offset="0%"></stop>
            <stop stop-color="#F3F4F5" offset="100%"></stop>
        </linearGradient>
        <path d="M72.4713872,111 L92.0026372,111 C95.2497075,111 97.8620122,113.612305 97.8620122,116.859375 L97.8620122,157.875 L119.273145,157.875 C123.618848,157.875 125.7917,163.124023 122.715528,166.200195 L85.5817387,203.358398 C83.750684,205.189453 69.2243168,111 72.4713872,111 Z" id="path-4"></path>
        <filter x="-2.9%" y="-1.6%" width="105.8%" height="103.2%" filterUnits="objectBoundingBox" id="filter-5">
            <feMorphology radius="0.5" operator="dilate" in="SourceAlpha" result="shadowSpreadOuter1"></feMorphology>
            <feOffset dx="0" dy="0" in="shadowSpreadOuter1" result="shadowOffsetOuter1"></feOffset>
            <feColorMatrix values="0 0 0 0 0.11372549   0 0 0 0 0.11372549   0 0 0 0 0.105882353  0 0 0 0.1 0" type="matrix" in="shadowOffsetOuter1"></feColorMatrix>
        </filter>
        <path d="M52.734375,0 L72.265625,0 C75.5126953,0 78.125,2.61230469 78.125,5.859375 L78.125,46.875 L99.5361328,46.875 C103.881836,46.875 106.054687,52.1240234 102.978516,55.2001953 L65.8447266,92.3583984 C64.0136719,94.1894531 61.0107422,94.1894531 59.1796875,92.3583984 L21.9970703,55.2001953 C18.9208984,52.1240234 21.09375,46.875 25.4394531,46.875 L46.875,46.875 L46.875,5.859375 C46.875,2.61230469 49.4873047,0 52.734375,0 Z M125,91.796875 L125,119.140625 C125,122.387695 122.387695,125 119.140625,125 L5.859375,125 C2.61230469,125 0,122.387695 0,119.140625 L0,91.796875 C0,88.5498047 2.61230469,85.9375 5.859375,85.9375 L41.6748047,85.9375 L53.6376953,97.9003906 C58.5449219,102.807617 66.4550781,102.807617 71.3623047,97.9003906 L83.3251953,85.9375 L119.140625,85.9375 C122.387695,85.9375 125,88.5498047 125,91.796875 Z" id="path-6"></path>
        <filter x="-26.4%" y="-26.4%" width="152.8%" height="152.8%" filterUnits="objectBoundingBox" id="filter-7">
            <feMorphology radius="1" operator="dilate" in="SourceAlpha" result="shadowSpreadOuter1"></feMorphology>
            <feOffset dx="0" dy="0" in="shadowSpreadOuter1" result="shadowOffsetOuter1"></feOffset>
            <feGaussianBlur stdDeviation="10" in="shadowOffsetOuter1" result="shadowBlurOuter1"></feGaussianBlur>
            <feColorMatrix values="0 0 0 0 0   0 0 0 0 0.403921569   0 0 0 0 0.6  0 0 0 0.4 0" type="matrix" in="shadowBlurOuter1"></feColorMatrix>
        </filter>
    </defs>
    <g id="Blogger-Importer" stroke="none" stroke-width="1" fill="none" fill-rule="evenodd">
        <rect id="Rectangle" fill="#C3E6FC" x="0" y="0" width="256" height="256"></rect>
        <rect id="Rectangle" fill="url(#linearGradient-1)" x="0" y="0" width="256" height="256"></rect>
        <g id="blogger" transform="translate(76.000000, 20.000000)">
            <rect id="Rectangle-5" fill="#FFFFFF" x="0" y="0" width="160" height="160" rx="18"></rect>
            <g id="Shape" fill-rule="nonzero">
                <use fill="#FF601B" fill-rule="evenodd" xlink:href="#path-2"></use>
                <path stroke="#FFFFFF" stroke-width="2" d="M57.2869316,57.8703318 C59.2807933,55.8351624 59.8905733,55.75 71,55.75 C80.8409345,55.75 81.255649,55.7776476 82.9114993,56.6055728 C85.3232724,57.8114593 86.4285714,59.6229217 86.4285714,62.3571429 C86.4285714,64.7930718 85.4104658,66.5747567 83.2550433,67.9840356 C82.0060115,68.7869847 81.5406592,68.8181973 71.6132403,68.8928386 C65.412342,68.9306489 60.9193484,68.8198352 60.0861267,68.5697176 C55.6801014,67.3291863 54.0718765,61.1303552 57.2869315,57.8703323 Z M79.9285714,91.3214286 C99.284314,91.3214286 99.8541375,91.3531234 101.644228,92.8037986 C101.789132,92.9212277 101.875358,92.9963012 102.1872,93.2735316 C105.326555,96.2431921 104.675585,101.436803 100.88587,103.584308 L100.73028,103.672476 L97.2680615,104.236968 L97.119668,104.249922 L80.0118475,104.464216 C66.2448876,104.627331 60.6339062,104.471014 59.4964211,103.953777 C57.6137856,103.14082 55.9200404,100.924943 55.615915,98.8821637 C55.3544302,96.9210282 56.2837077,94.3496027 57.7652639,93.0373673 C59.6492834,91.3674409 60.3137877,91.3214286 79.9285714,91.3214286 Z M160.707549,138.901595 L160.706777,138.908028 C159.405074,149.470421 152.135321,157.656615 141.706821,160.291571 C138.947787,160.98133 137.265739,160.99955 79.7142857,160.964286 C23.0611609,160.964286 20.3531884,160.935717 18.0323549,160.288801 C14.9750021,159.488066 12.2933837,158.279065 9.75992715,156.577476 C7.6562966,155.150012 4.60163209,152.204012 3.42252423,150.454359 C2.00561166,148.366277 0.385982183,144.800843 -0.287183364,142.295171 C-0.981184858,139.711943 -1,138.05527 -1,80.1071429 C-1,21.4365213 -0.991571477,20.5348402 -0.369982336,17.9998344 C-0.348336201,17.9122166 -0.348336201,17.9122166 -0.326120559,17.8242804 C2.02034247,8.62465551 9.32105329,1.60236163 18.7144755,-0.476812641 C21.4654655,-1.07976935 137.606248,-1.18458955 140.555925,-0.5871865 C148.421418,1.00817294 154.645449,5.7705725 158.250399,12.9433098 C158.470888,13.3814243 159.13741,14.5964892 159.138631,14.5988012 C159.465121,15.2171615 159.682703,15.7246682 159.867785,16.3444369 C160.282322,17.7325654 160.506972,19.6894185 160.650975,23.2633111 C160.893958,29.29372 160.877379,25.1398419 160.964284,77.89113 C161.036026,119.429419 160.965141,136.693658 160.707549,138.901595 Z M128.237455,72.8568717 C127.904335,71.3437587 126.966845,69.9463785 125.985434,69.4136099 C125.812809,69.3194512 123.416098,69.0626607 120.880241,68.9274028 C116.238042,68.7027803 115.666313,68.6045144 114.069293,67.6862175 C111.514023,66.2025121 110.753192,64.4533867 110.714286,60.2857143 C110.714286,53.2723748 107.787061,46.733752 101.965645,40.8083818 C97.7687817,36.5415707 93.1571633,33.6839073 87.8863529,32.0992087 C86.7279608,31.7452556 83.6884915,31.6041831 74.1669172,31.4999321 C58.9907772,31.323054 55.6454258,31.632728 50.5827062,33.643945 C41.2694146,37.3347679 34.5803259,45.1647741 32.1150808,55.2340538 C31.6719226,57.0748649 31.5688901,60.498354 31.4642654,77.970655 C31.3215295,100.380194 31.471613,103.579701 32.8463929,107.841577 C36.0853121,118.092589 45.3156143,126.229302 55.1459922,128.016647 C58.3073952,128.600819 98.5548137,128.747648 102.581153,128.187473 C109.525799,127.25461 114.967804,124.472231 120.107805,119.228042 C123.796383,115.470518 126.112278,111.375041 127.647637,105.896882 C128.568894,102.758851 128.792407,75.4066891 128.237454,72.8568709 Z"></path>
            </g>
        </g>
        <g id="Path">
            <use fill="black" fill-opacity="1" filter="url(#filter-5)" xlink:href="#path-4"></use>
            <use fill="url(#linearGradient-3)" fill-rule="evenodd" xlink:href="#path-4"></use>
        </g>
        <g id="download" transform="translate(20.000000, 111.000000)" fill-rule="nonzero">
            <g>
                <use fill="black" fill-opacity="1" filter="url(#filter-7)" xlink:href="#path-6"></use>
                <use fill="url(#linearGradient-3)" fill-rule="evenodd" xlink:href="#path-6"></use>
            </g>
        </g>
    </g>
</svg>